<svg width="154" height="16" viewBox="0 0 154 16" fill="none" xmlns="http://www.w3.org/2000/svg">
<path d="M35.4491 15.1854V0.255783H41.181C42.3453 0.255783 43.2822 0.403868 43.9918 0.706769C44.6945 1.00967 45.2457 1.47412 45.6452 2.10011C46.0448 2.72611 46.2446 3.38576 46.2446 4.07233C46.2446 4.71179 46.0655 5.31086 45.7141 5.87628C45.3628 6.44169 44.8254 6.89268 44.1089 7.2427C45.0321 7.50521 45.7417 7.9562 46.2377 8.59565C46.7338 9.23511 46.9818 9.989 46.9818 10.8573C46.9818 11.5574 46.8302 12.2035 46.5271 12.8093C46.2239 13.4151 45.8519 13.8729 45.4041 14.196C44.9563 14.519 44.4052 14.7681 43.73 14.9364C43.0618 15.1047 42.235 15.1854 41.2637 15.1854H35.4491ZM37.4677 6.5292H40.7676C41.6632 6.5292 42.3039 6.46862 42.6966 6.35419C43.2133 6.2061 43.5991 5.95705 43.8609 5.61376C44.1227 5.27048 44.2536 4.83295 44.2536 4.30792C44.2536 3.80982 44.1296 3.37903 43.8885 3.00208C43.6473 2.62514 43.296 2.36936 42.8482 2.228C42.3935 2.08665 41.6219 2.01934 40.5265 2.01934H37.4745V6.5292H37.4677ZM37.4677 13.4219H41.2705C41.925 13.4219 42.3797 13.395 42.6484 13.3478C43.1169 13.2671 43.5027 13.1324 43.8127 12.944C44.1227 12.7555 44.3845 12.4795 44.5843 12.116C44.7841 11.7526 44.8874 11.3352 44.8874 10.8573C44.8874 10.2986 44.7427 9.81399 44.4465 9.40339C44.1572 8.99279 43.7507 8.70335 43.234 8.53507C42.7173 8.3668 41.9733 8.28602 41.0019 8.28602H37.4677V13.4219Z" fill="#263238"/>
<path d="M50.0199 15.1854V0.255783H61.0634V2.01934H52.0454V6.58978H60.4985V8.33987H52.0454V13.4219H61.4217V15.1854H50.0199Z" fill="#263238"/>
<path d="M65.5415 0.255783H75.1038V15.1787H73.0853V2.01934H67.56V9.70629C67.56 11.2679 67.4843 12.4122 67.3327 13.1392C67.1811 13.8661 66.8711 14.4315 66.3889 14.8354C65.9066 15.2393 65.3004 15.4412 64.5632 15.4412C64.1154 15.4412 63.5849 15.3604 62.958 15.1989L63.3025 13.4488C63.6332 13.5834 63.9225 13.6507 64.1567 13.6507C64.6183 13.6507 64.9559 13.4825 65.1901 13.1459C65.4175 12.8093 65.5346 12.0151 65.5346 10.7698V0.255783H65.5415Z" fill="#263238"/>
<path d="M78.0317 7.91581C78.0317 5.43875 78.7138 3.50019 80.071 2.10011C81.4351 0.700038 83.1918 0 85.3413 0C86.7536 0 88.0212 0.329825 89.1579 0.989476C90.2878 1.64913 91.1558 2.56456 91.7483 3.74251C92.3408 4.92046 92.637 6.25322 92.637 7.74753C92.637 9.26204 92.327 10.615 91.7001 11.8064C91.0732 12.9978 90.1913 13.9065 89.0408 14.5191C87.8972 15.1316 86.6571 15.4412 85.3344 15.4412C83.8945 15.4412 82.6131 15.1047 81.4764 14.4248C80.3465 13.745 79.4854 12.8228 78.8998 11.6449C78.3211 10.4669 78.0317 9.22838 78.0317 7.91581ZM80.1123 7.94273C80.1123 9.73995 80.6083 11.1602 81.6004 12.1901C82.5925 13.2267 83.8325 13.745 85.3275 13.745C86.85 13.745 88.1039 13.2199 89.0822 12.1766C90.0673 11.1333 90.5565 9.64571 90.5565 7.72734C90.5565 6.51574 90.3429 5.45222 89.9227 4.54351C89.5024 3.63481 88.8893 2.93477 88.0763 2.43667C87.2703 1.93857 86.3609 1.68951 85.3482 1.68951C83.9152 1.68951 82.6889 2.16742 81.6555 3.12998C80.629 4.09253 80.1123 5.70127 80.1123 7.94273Z" fill="#263238"/>
<path d="M94.7727 10.3861L96.681 10.2246C96.7706 10.9717 96.9842 11.5843 97.3149 12.0622C97.6455 12.5401 98.1554 12.9305 98.8512 13.2199C99.547 13.5161 100.325 13.6642 101.194 13.6642C101.965 13.6642 102.647 13.5498 103.233 13.3276C103.825 13.1055 104.259 12.7959 104.549 12.4055C104.838 12.0151 104.983 11.591 104.983 11.1266C104.983 10.6554 104.845 10.2515 104.569 9.9015C104.294 9.55148 103.832 9.25531 103.191 9.01972C102.778 8.8649 101.876 8.62258 100.47 8.29275C99.0647 7.96293 98.0865 7.6533 97.5215 7.36386C96.7913 6.99365 96.247 6.5292 95.8888 5.97724C95.5305 5.42529 95.3514 4.80603 95.3514 4.11945C95.3514 3.36557 95.5719 2.6588 96.0059 2.00588C96.4468 1.35296 97.0806 0.854854 97.9211 0.511566C98.7616 0.175009 99.6985 0 100.725 0C101.855 0 102.854 0.17501 103.722 0.53176C104.59 0.888509 105.251 1.41354 105.72 2.10684C106.188 2.80015 106.436 3.58096 106.471 4.45601L104.535 4.59736C104.431 3.655 104.08 2.9415 103.474 2.45686C102.875 1.97222 101.986 1.73663 100.815 1.73663C99.5952 1.73663 98.6996 1.95876 98.1416 2.39628C97.5835 2.83381 97.3011 3.35883 97.3011 3.9781C97.3011 4.51659 97.5009 4.95411 97.8936 5.30413C98.2794 5.64742 99.299 6.00417 100.939 6.36765C102.578 6.73113 103.708 7.0475 104.321 7.31674C105.21 7.72061 105.864 8.22544 106.292 8.83798C106.712 9.45051 106.925 10.1573 106.925 10.9583C106.925 11.7526 106.691 12.4997 106.23 13.2065C105.761 13.9065 105.093 14.4585 104.225 14.8489C103.35 15.2393 102.372 15.4345 101.283 15.4345C99.8983 15.4345 98.7409 15.2393 97.8109 14.8421C96.8739 14.4517 96.1437 13.8594 95.6132 13.0651C95.0758 12.2843 94.8003 11.3891 94.7727 10.3861Z" fill="#263238"/>
<path d="M109.971 15.1854V0.255783H111.989V6.38784H119.932V0.255783H121.951V15.1787H119.932V8.1514H111.989V15.1854H109.971Z" fill="#263238"/>
<path d="M124.913 7.91581C124.913 5.43875 125.595 3.50019 126.953 2.10011C128.317 0.700038 130.074 0 132.223 0C133.635 0 134.903 0.329825 136.04 0.989476C137.169 1.64913 138.038 2.56456 138.63 3.74251C139.223 4.92046 139.519 6.25322 139.519 7.74753C139.519 9.26204 139.209 10.615 138.582 11.8064C137.955 12.9978 137.073 13.9065 135.923 14.5191C134.779 15.1316 133.539 15.4412 132.216 15.4412C130.776 15.4412 129.495 15.1047 128.358 14.4248C127.228 13.745 126.367 12.8228 125.782 11.6449C125.21 10.4669 124.913 9.22838 124.913 7.91581ZM127.001 7.94273C127.001 9.73995 127.497 11.1602 128.489 12.1901C129.481 13.2267 130.721 13.745 132.216 13.745C133.739 13.745 134.992 13.2199 135.971 12.1766C136.956 11.1333 137.445 9.64571 137.445 7.72734C137.445 6.51574 137.232 5.45222 136.811 4.54351C136.391 3.63481 135.778 2.93477 134.965 2.43667C134.159 1.93857 133.249 1.68951 132.237 1.68951C130.804 1.68951 129.578 2.16742 128.544 3.12998C127.518 4.09253 127.001 5.70127 127.001 7.94273Z" fill="#263238"/>
<path d="M142.343 15.1854V0.255783H148.103C149.115 0.255783 149.894 0.302901 150.424 0.397137C151.175 0.518298 151.802 0.753887 152.312 1.09717C152.822 1.44046 153.228 1.91837 153.538 2.53764C153.848 3.1569 154 3.83675 154 4.57044C154 5.84262 153.587 6.91287 152.76 7.79465C151.933 8.67643 150.438 9.11395 148.282 9.11395H144.362V15.1787H142.343V15.1854ZM144.362 7.35713H148.309C149.618 7.35713 150.542 7.12154 151.093 6.64363C151.644 6.16572 151.912 5.49933 151.912 4.63775C151.912 4.01175 151.754 3.47999 151.43 3.03574C151.106 2.59149 150.679 2.29532 150.156 2.15396C149.818 2.06646 149.184 2.01934 148.268 2.01934H144.362V7.35713Z" fill="#263238"/>
<rect x="18" y="1.04652" width="13" height="13" rx="6.5" stroke="#263238" stroke-width="2"/>
<rect x="1" y="1.04652" width="13" height="13" rx="6.5" stroke="#263238" stroke-width="2"/>
</svg>
